<svg width="162" height="29" viewBox="0 0 162 29" fill="none" xmlns="http://www.w3.org/2000/svg">
<path d="M21.6601 17.6179C21.6789 17.5382 21.6978 17.4586 21.719 17.3789C21.0593 17.6397 20.4207 17.9536 19.7869 18.2748C18.0787 19.1393 16.3328 20.0907 14.4055 20.296C13.357 20.4095 12.1648 19.6585 12.0847 18.4945C11.9409 16.4371 12.1082 14.3748 12.2048 12.3198C12.2284 11.8248 12.2472 11.3273 12.2543 10.8323C12.2543 10.7067 12.2567 10.5811 12.259 10.4555C12.2331 10.0668 12.2425 10.1175 12.252 10.2382C12.2496 10.0909 12.2496 9.94119 12.2425 9.79389C12.2425 9.76249 12.2378 9.7311 12.2378 9.69971C11.4956 10.2165 10.8053 10.8105 10.1479 11.4311C9.95942 11.6098 9.77329 11.7885 9.58951 11.9721C9.56595 11.9938 9.51647 12.0469 9.46935 12.0928C9.44814 12.1145 9.42693 12.1363 9.41515 12.1483C9.06173 12.5154 8.71302 12.8873 8.36902 13.264C7.71872 13.9764 7.08492 14.7032 6.44876 15.4301C5.90213 16.0531 5.3555 16.681 4.78531 17.2823C4.55912 17.5213 4.32586 17.7556 4.0926 17.9898C4.03606 18.0478 3.96537 18.1492 3.89469 18.1927C3.59074 18.5163 3.29623 18.8495 3.00642 19.1876C2.51398 19.7671 2.03804 20.3588 1.56445 20.9552C3.89469 25.5676 8.59521 28.7189 14.012 28.7189C15.5977 28.7189 17.1198 28.4484 18.5405 27.951C18.6654 27.4439 18.7997 26.9416 18.9364 26.4466C19.7587 23.4763 20.8708 20.5954 21.6624 17.6155" fill="white"/>
<path d="M14.0097 0.00241488C6.27208 0.00241488 0 6.43069 0 14.361C0 14.9792 0.0376984 15.5853 0.110739 16.1818C0.252108 16.0224 0.393477 15.8654 0.539559 15.7085C0.803448 15.4235 1.07676 15.1482 1.35243 14.8729C1.38777 14.8367 1.42312 14.8005 1.45846 14.7667C1.71057 14.5011 1.95796 14.2354 2.203 13.9625C2.80382 13.2936 3.39286 12.6127 3.98661 11.9365C5.4003 10.3331 6.84698 8.73202 8.46566 7.34108C9.94061 6.0733 11.6794 4.91659 13.6209 4.63164C14.1793 4.54954 14.7142 4.72824 15.1666 5.05424C15.6236 5.38748 15.8121 5.90426 15.9417 6.43069C16.4412 8.43017 16.3918 10.548 16.3022 12.5958C16.2622 13.5279 16.2033 14.4576 16.1609 15.3897C16.9431 15.0323 17.7041 14.6266 18.4746 14.2403C20.3572 13.3009 22.367 12.533 24.4946 12.7527C25.6302 12.8686 26.3889 13.9891 26.2852 15.1048C26.2004 16.0127 26.0355 16.9086 25.8258 17.7925C25.2792 20.1204 24.5111 22.3782 23.7759 24.6482C26.3913 22.0402 28.0147 18.3938 28.0147 14.3586C28.0147 6.42828 21.7426 0 14.005 0" fill="white"/>
<path d="M57.6864 23.2964H53.3055L52.2959 15.6801C52.2103 14.9964 52.1461 14.4004 52.1068 13.8885C52.0533 13.3839 51.9962 12.6636 51.9427 11.7349C51.8 12.5686 51.5824 13.5009 51.2863 14.5284C51.2221 14.7295 51.1757 14.9013 51.1436 15.0476L48.8068 23.3037H45.6853L43.3485 15.0476C43.3235 14.9123 43.2772 14.7404 43.2058 14.5284C42.8776 13.4461 42.66 12.5137 42.5601 11.7349C42.4959 12.6161 42.4388 13.2742 42.3853 13.7093C42.3603 13.9324 42.3282 14.2615 42.2783 14.6966C42.2319 15.1317 42.1962 15.4607 42.1712 15.6838L41.1616 23.3H36.8057L39.4599 5.68359H44.0977L46.6913 14.7697C46.7377 14.9379 46.7698 15.0476 46.7841 15.0951C47.0124 15.8483 47.1622 16.5394 47.2407 17.1646C47.255 16.9489 47.3156 16.5942 47.4155 16.1043C47.4476 15.9836 47.5653 15.5302 47.7687 14.7441L50.3873 5.68359H55.0358L57.6793 23.3L57.6864 23.2964Z" fill="white"/>
<path d="M72.9094 18.0752H63.8907C63.9156 19.0222 64.144 19.7425 64.5828 20.2434C65.0358 20.7553 65.6958 21.0149 66.5556 21.0149C67.1835 21.0149 67.7186 20.8906 68.1646 20.642C68.6176 20.3787 68.9459 20.0167 69.1492 19.5597L72.2958 20.8577C71.9283 21.7791 71.2612 22.4921 70.298 23.0004C69.3419 23.5122 68.1717 23.7718 66.7875 23.7718C64.7219 23.7718 63.0594 23.1795 61.8072 21.9912C60.5622 20.8358 59.9414 19.2928 59.9414 17.3586C59.9414 15.4243 60.5622 13.896 61.8072 12.6309C63.0523 11.3877 64.6327 10.7661 66.552 10.7661C68.4714 10.7661 70.0554 11.395 71.1898 12.6565C71.7678 13.3073 72.1995 14.0642 72.4813 14.9234C72.7631 15.7863 72.9023 16.7699 72.9023 17.8778V18.0825L72.9094 18.0752ZM68.7889 15.6583C68.7175 14.9856 68.4642 14.4335 68.0254 14.0093C67.5866 13.5852 67.0515 13.3731 66.4165 13.3731C65.7494 13.3731 65.2107 13.5632 64.7968 13.9398C64.3651 14.364 64.0976 14.938 63.987 15.662H68.7889V15.6583Z" fill="white"/>
<path d="M76.0234 23.2967V4.64551H80.1332V16.452L84.4428 11.1465H89.6336L84.3037 16.9968L90.1152 23.304H84.6069L80.1332 17.8999V23.304H76.0234V23.2967Z" fill="white"/>
<path d="M104.831 11.1432V23.297H100.978V21.3226C100.422 22.1635 99.8046 22.7814 99.1197 23.1763C98.4347 23.5712 97.6356 23.765 96.7223 23.765C95.1347 23.765 93.8718 23.1727 92.9336 21.9844C92.4733 21.3993 92.1202 20.7083 91.8776 19.9148C91.635 19.1214 91.5137 18.2256 91.5137 17.2311C91.5137 15.242 92.0096 13.6661 93.0049 12.5034C93.9967 11.3406 95.3274 10.7593 96.9934 10.7593C97.8853 10.7593 98.6523 10.9567 99.2909 11.3516C99.9402 11.7319 100.497 12.3315 100.957 13.1505V11.1432H104.831ZM101.146 17.2128C101.146 16.2512 100.9 15.5089 100.408 14.9787C99.9081 14.4193 99.2374 14.1378 98.3919 14.1378C97.5464 14.1378 96.8828 14.4083 96.4012 14.9531C95.9017 15.5126 95.652 16.2658 95.652 17.2128C95.652 18.1598 95.9017 18.913 96.4012 19.4578C96.8792 19.9953 97.5428 20.2622 98.3919 20.2622C99.2409 20.2622 99.9045 19.9953 100.4 19.4578C100.896 18.9203 101.146 18.1744 101.146 17.2128Z" fill="white"/>
<path d="M108.688 23.297V11.1432H112.515V13.6113C113.054 12.6496 113.696 11.9257 114.438 11.4467C115.159 10.9896 116.029 10.7593 117.053 10.7593C117.828 10.7593 118.516 10.8799 119.119 11.1213C119.715 11.3955 120.196 11.7648 120.567 12.2291C120.906 12.6935 121.127 13.1871 121.238 13.71C121.37 14.3754 121.438 15.253 121.438 16.3462V23.3007H117.235V16.7886C117.235 15.8014 117.082 15.0957 116.779 14.6716C116.475 14.2292 115.98 14.0098 115.291 14.0098C114.431 14.0098 113.8 14.3389 113.393 14.997C112.994 15.6552 112.797 16.7228 112.797 18.1964V23.3007H108.688V23.297Z" fill="white"/>
<path d="M124.987 23.2966V11.1428H129.168V23.2966H124.987ZM125.515 8.01291H125.54C125.54 7.56318 125.694 7.19388 126 6.90503C126.304 6.59058 126.675 6.43701 127.103 6.43701C127.556 6.43701 127.931 6.58692 128.223 6.88309C128.516 7.17926 128.662 7.55587 128.662 8.01291C128.662 8.46996 128.508 8.86485 128.205 9.16833C127.909 9.48277 127.538 9.63634 127.103 9.63634C126.668 9.63634 126.279 9.47181 125.976 9.14273C125.669 8.83925 125.515 8.45899 125.515 8.01291Z" fill="white"/>
<path d="M133.308 23.2967V4.64551H137.417V16.452L141.727 11.1465H146.918L141.588 16.9968L147.399 23.304H141.891L137.417 17.8999V23.304H133.308V23.2967Z" fill="white"/>
<path d="M161.563 11.1428V17.3513C161.563 18.7408 161.459 19.7499 161.256 20.3825C161.038 21.0406 160.667 21.633 160.154 22.1631C159.661 22.6933 159.008 23.0955 158.206 23.3661C157.439 23.6293 156.515 23.7646 155.434 23.7646C154.353 23.7646 153.45 23.633 152.697 23.3661C151.923 23.1101 151.256 22.7079 150.703 22.1631C150.193 21.6659 149.833 21.0809 149.622 20.4044C149.412 19.7792 149.305 18.7591 149.305 17.3477V11.1392H153.297V17.6256C153.297 18.6457 153.464 19.3733 153.803 19.8157C154.11 20.2801 154.638 20.5141 155.387 20.5141C156.137 20.5141 156.665 20.2911 156.989 19.8413C157.314 19.3916 157.478 18.653 157.478 17.6256V11.1392H161.563V11.1428Z" fill="white"/>
</svg>
